# xmcd
#
# Track frame offsets: 
#        150
#        1488
#        5204
#        17928
#        28466
#        42770
#        46298
#        59918
#        63473
#        75815
#        78969
#        90140
#        94389
#        105489
#        109452
#        121888
#        125434
#        136066
#        139588
#        149732
#        154079
#        170767
#        174203
#        186822
#        191102
#        207931
#        211765
#        226480
#        230425
#        240505
#        244652
#        256873
#        272115
#        291512
#        305093
#        306489
#        307709
#        309401
#        310827
#        311998
#        313420
#        314909
#        316057
#        317499
#        318582
#        324806
#        331202
#
# Disc length: 4511 seconds
#
# Revision: 1
# Processed by: cddbd v1.5.2PL0 Copyright (c) Steve Scherf et al.
# Submitted via: ExactAudioCopy v0.99pb5
#
DISCID=a6119d2f
DTITLE=Arthur Hughes, Peter Trudgill and Dominic Watt - English Accents 
DTITLE=and Dialects CD
DYEAR=2005
DGENRE=Speech
TTITLE0=Copyright Statement
TTITLE1=RP word list
TTITLE2=RP Speaker 1
TTITLE3=RP Speaker 2
TTITLE4=RP Speaker 3
TTITLE5=London word list
TTITLE6=London
TTITLE7=Norwich word list
TTITLE8=Norwich
TTITLE9=Bristol word list
TTITLE10=Bristol
TTITLE11=Pontypridd word list
TTITLE12=Pontypridd
TTITLE13=Walsall word list
TTITLE14=Walsall
TTITLE15=Leicester word list
TTITLE16=Leicester
TTITLE17=Bradford word list
TTITLE18=Bradford
TTITLE19=Liverpool word list
TTITLE20=Liverpool
TTITLE21=Edinburgh word list
TTITLE22=Edinburgh
TTITLE23=Aberdeen word list
TTITLE24=Aberdeen
TTITLE25=Belfast word list
TTITLE26=Belfast
TTITLE27=Dublin word list
TTITLE28=Dublin
TTITLE29=Galway word list
TTITLE30=Galway
TTITLE31=Devon
TTITLE32=Northumberland
TTITLE33=Lowland Scots
TTITLE34=Test passage 1
TTITLE35=Test passage 2
TTITLE36=Test passage 3
TTITLE37=Test passage 4
TTITLE38=Test passage 5
TTITLE39=Test passage 6
TTITLE40=Test passage 7
TTITLE41=Test passage 8
TTITLE42=Test passage 9
TTITLE43=Test passage 10
TTITLE44=Test passage 11
TTITLE45=Test passage 12
TTITLE46=Test passage 13
EXTD=
EXTT0=
EXTT1=
EXTT2=
EXTT3=
EXTT4=
EXTT5=
EXTT6=
EXTT7=
EXTT8=
EXTT9=
EXTT10=
EXTT11=
EXTT12=
EXTT13=
EXTT14=
EXTT15=
EXTT16=
EXTT17=
EXTT18=
EXTT19=
EXTT20=
EXTT21=
EXTT22=
EXTT23=
EXTT24=
EXTT25=
EXTT26=
EXTT27=
EXTT28=
EXTT29=
EXTT30=
EXTT31=
EXTT32=
EXTT33=
EXTT34=
EXTT35=
EXTT36=
EXTT37=
EXTT38=
EXTT39=
EXTT40=
EXTT41=
EXTT42=
EXTT43=
EXTT44=
EXTT45=
EXTT46=
PLAYORDER=
